<?xml version="1.0" encoding="utf-8"?>
<!-- Generator: Adobe Illustrator 16.0.0, SVG Export Plug-In . SVG Version: 6.00 Build 0)  -->
<!DOCTYPE svg PUBLIC "-//W3C//DTD SVG 1.1//EN" "http://www.w3.org/Graphics/SVG/1.1/DTD/svg11.dtd">
<svg version="1.1" id="Layer_1" xmlns="http://www.w3.org/2000/svg" xmlns:xlink="http://www.w3.org/1999/xlink" x="0px" y="0px"
	 width="792px" height="612px" viewBox="0 0 792 612" enable-background="new 0 0 792 612" xml:space="preserve">
<path d="M202.174,327.682l0.1-4.305c0.997-50.047,21.126-96.893,56.701-131.927c35.575-35.134,82.709-54.453,132.634-54.453
	c49.928,0,97.063,19.319,132.637,54.453c35.575,35.034,55.705,81.98,56.701,131.927l0.1,4.305h-66.467l-0.1-4.104
	c0-1.602-0.1-3.103-0.199-4.604c-4.284-64.662-58.194-115.412-122.871-115.412c-32.287,0-62.779,12.412-85.898,35.034
	c-23.119,22.522-36.273,52.752-37.169,84.981l-0.1,4.104H202.174z M391.608,145.505c-47.732,0-92.674,18.518-126.754,52.051
	c-32.984,32.532-52.017,75.574-54.01,121.718h49.028c1.993-32.931,15.944-63.561,39.561-86.683
	c24.713-24.124,57.299-37.437,91.778-37.437c69.061,0,126.758,54.153,131.342,123.42c0,0.3,0,0.5,0.1,0.801h49.626
	c-1.993-46.145-21.026-89.187-54.011-121.718C484.286,163.923,439.244,145.505,391.608,145.505L391.608,145.505z"/>
<path d="M559.521,324.979h-8.47c0-88.385-71.549-160.255-159.543-160.255c-87.991,0-159.54,71.871-159.54,160.255h-8.47
	c0-93.089,75.435-168.763,168.009-168.763C484.087,156.215,559.521,231.889,559.521,324.979z"/>
<path d="M541.784,326.08h-8.47c0-78.576-63.677-142.538-141.905-142.538c-78.225,0-141.901,63.962-141.901,142.538h-8.47
	c0-83.28,67.463-151.046,150.372-151.046C474.321,175.034,541.784,242.8,541.784,326.08z"/>
<path d="M581.045,340.031l-0.1,4.305c-0.996,50.047-21.126,96.893-56.701,131.927c-35.574,35.134-82.709,54.453-132.633,54.453
	c-49.928,0-97.063-19.319-132.637-54.453c-35.575-35.034-55.705-81.98-56.701-131.927l-0.1-4.305h66.467l0.1,4.104
	c0,1.602,0.1,3.104,0.199,4.604C273.223,413.4,327.133,464.15,391.81,464.15c32.287,0,62.78-12.412,85.898-35.033
	c23.119-22.522,36.272-52.752,37.169-84.982l0.101-4.104H581.045z M391.611,522.207c47.732,0,92.674-18.518,126.754-52.051
	c32.984-32.531,52.018-75.573,54.01-121.717h-49.027c-1.992,32.93-15.943,63.561-39.561,86.683
	c-24.713,24.124-57.299,37.437-91.778,37.437c-69.061,0-126.758-54.152-131.342-123.42c0-0.299,0-0.5-0.1-0.801h-49.626
	c1.993,46.145,21.026,89.188,54.011,121.719C298.933,503.789,343.975,522.207,391.611,522.207L391.611,522.207z"/>
<path d="M223.698,342.734h8.47c0,88.385,71.549,160.255,159.543,160.255c87.991,0,159.54-71.87,159.54-160.255h8.47
	c0,93.089-75.435,168.763-168.009,168.763C299.132,511.497,223.698,435.823,223.698,342.734z"/>
<path d="M241.435,341.633h8.47c0,78.575,63.677,142.537,141.905,142.537c78.225,0,141.901-63.962,141.901-142.537h8.471
	c0,83.279-67.463,151.046-150.372,151.046C308.898,492.679,241.435,424.912,241.435,341.633z"/>
<rect x="116.5" y="318.5" fill="#F9F8D5" width="533" height="92"/>
<text transform="matrix(0.8872 0 0 1 134.0215 396.9707)"><tspan x="0" y="0" font-family="'CourierNewPS-BoldMT'" font-size="104.8481" letter-spacing="-5.635">S</tspan><tspan x="56.628" y="0" font-family="'CourierNewPSMT'" font-size="104.8481" letter-spacing="-5.635">TORY-S</tspan><tspan x="396.397" y="0" font-family="'CourierNewPS-BoldMT'" font-size="104.8481" letter-spacing="-5.635">PIN</tspan></text>
<path d="M371.196,334.1l-71.733-18.577V210.161l74.717,19.255l-2.984,11.255l-60.208-15.594v81.496l63.191,16.273L371.196,334.1z"/>
<path d="M402.522,334.235h-32.275V229.28h32.275V334.235z M381.773,322.71h9.22v-81.903h-9.22V322.71z"/>
<path d="M386.383,240.807c-0.949,0-1.898-0.272-2.848-0.678l-49.63-27.528v8.272c0,3.254-2.576,5.831-5.83,5.831
	s-5.832-2.576-5.832-5.831v-27.798l66.717,37.02c2.846,1.49,3.796,5.016,2.304,7.864
	C390.316,239.722,388.417,240.807,386.383,240.807L386.383,240.807z"/>
<path d="M401.437,334.1l-2.848-11.254l63.191-16.273v-81.496l-60.344,15.594l-2.848-11.255l74.717-19.255v105.362L401.437,334.1z"/>
<path d="M386.383,240.807c-2.033,0-3.933-1.085-5.017-2.983c-1.492-2.847-0.542-6.373,2.305-7.865l66.717-37.019v27.798
	c0,3.254-2.574,5.83-5.83,5.83s-5.83-2.576-5.83-5.83v-8.272l-49.633,27.526C388.282,240.671,387.333,240.807,386.383,240.807
	L386.383,240.807z"/>
</svg>
